PathFileType	4	(X/Y/Z)	 s06c0402.trc
DataRate	CameraRate	NumFrames	NumMarkers	Units	OrigDataRate	OrigDataStartFrame	OrigNumFrames
200	200	6	48	mm	200	1	2000
Frame#	Time	racr			lacr			c7			jug			rlel			rdr			llel			ldr			s2			lic			ric			lasi			rasi			rpsi			lpsi			rgt			lgt			rth1			rth2			rth3			rth4			rlfc			rmfc			rsh1			rsh2			rsh3			rsh4			rlmal			rcal			rtoe			rmt5			lth1			lth2			lth4			lth3			llfc			lmfc			llmal			lcal			lmt5			lsh1			lsh2			lsh3			lsh4			ltoe			SBIKE			LBIKE			RBIKE			
		X1	Y1	Z1	X2	Y2	Z2	X3	Y3	Z3	X4	Y4	Z4	X5	Y5	Z5	X6	Y6	Z6	X7	Y7	Z7	X8	Y8	Z8	X9	Y9	Z9	X10	Y10	Z10	X11	Y11	Z11	X12	Y12	Z12	X13	Y13	Z13	X14	Y14	Z14	X15	Y15	Z15	X16	Y16	Z16	X17	Y17	Z17	X18	Y18	Z18	X19	Y19	Z19	X20	Y20	Z20	X21	Y21	Z21	X22	Y22	Z22	X23	Y23	Z23	X24	Y24	Z24	X25	Y25	Z25	X26	Y26	Z26	X27	Y27	Z27	X28	Y28	Z28	X29	Y29	Z29	X30	Y30	Z30	X31	Y31	Z31	X32	Y32	Z32	X33	Y33	Z33	X34	Y34	Z34	X35	Y35	Z35	X36	Y36	Z36	X37	Y37	Z37	X38	Y38	Z38	X39	Y39	Z39	X40	Y40	Z40	X41	Y41	Z41	X42	Y42	Z42	X43	Y43	Z43	X44	Y44	Z44	X45	Y45	Z45	X46	Y46	Z46	X47	Y47	Z47	X48	Y48	Z48	
1	0.0050	420.343092	1365.104241	-42.322744	438.018590	1373.493427	-373.707466	412.529022	1450.003652	-205.832381	452.916528	1298.292796	-204.278433	499.237594	1115.794464	28.379438	690.952973	948.819447	-31.267834	489.356930	1114.216881	-453.325268	677.670314	945.830506	-415.877684	-52.067697	1141.110529	-220.046443	134.562426	1092.653439	-376.643157	100.157984	1104.981622	-40.399622	143.935247	1022.372084	-351.076560	112.019121	1048.218997	-68.357164	-18.820188	1175.323379	-185.352248	-13.588212	1173.586073	-247.906699	55.567799	1054.948295	-8.585380	81.593093	1017.735066	-407.443868	157.864352	986.416908	-2.955282	246.813578	967.124527	-9.593603	310.351027	908.440782	-16.730244	258.839188	997.779058	-28.589923	380.935365	828.398877	-40.400082	380.080072	803.816856	-151.055833	347.553294	709.470556	-14.516525	342.864301	624.002004	-35.952195	298.966290	549.096174	-39.939121	365.984611	621.926010	-68.395085	269.063091	469.711571	-46.075115	206.191443	446.311648	-97.912223	477.685098	396.998971	-97.865646	379.326466	386.115878	-27.998133	118.675232	899.350323	-417.452003	182.792722	841.657387	-405.990298	212.227036	861.167242	-392.377307	209.434493	756.494796	-396.113339	228.117492	646.958591	-367.490854	219.104776	630.866421	-251.313683	-26.990276	374.711942	-376.725216	-108.028494	364.841146	-331.765852	69.774512	275.984291	-398.517938	159.704757	566.043939	-395.348873	117.213828	491.728612	-378.577511	41.928390	443.750855	-382.706469	134.309855	479.391458	-345.726931	153.133452	260.146061	-337.469336	-203.621691	868.339858	-206.283539	-49.471638	83.994692	-413.653378	-48.701979	79.649097	-16.189771	
2	0.0100	420.338975	1365.104872	-42.367991	438.025008	1373.471204	-373.720583	412.507851	1449.991748	-205.881310	452.916643	1298.286106	-204.300452	499.245074	1115.807195	28.389354	690.964788	948.805359	-31.263620	489.350361	1114.168849	-453.321192	677.690384	945.830777	-415.881215	-52.067767	1141.101045	-220.062548	134.551262	1092.655878	-376.636646	100.135054	1105.005379	-40.421788	143.925409	1022.361313	-351.113995	112.000340	1048.242551	-68.377157	-18.847249	1175.310795	-185.340263	-13.592624	1173.579203	-247.922695	55.551121	1054.950955	-8.581984	81.591849	1017.723240	-407.439614	157.861622	986.437263	-2.964902	246.797780	967.137259	-9.590119	310.372396	908.444837	-16.715802	258.838182	997.782944	-28.583729	380.957540	828.437277	-40.399267	380.097003	803.871326	-151.064279	347.552448	709.495837	-14.511791	342.868926	624.011792	-35.958028	298.954650	549.121910	-39.944083	365.983044	621.945607	-68.366435	269.049323	469.747138	-46.073304	206.188821	446.330733	-97.902141	477.663323	397.029622	-97.868554	379.291756	386.156392	-27.993915	118.661119	899.335183	-417.469724	182.769999	841.640004	-405.985383	212.201656	861.149428	-392.389914	209.398064	756.478093	-396.129602	228.095525	646.940110	-367.509330	219.109016	630.845549	-251.332757	-26.967409	374.678731	-376.717309	-108.018571	364.792860	-331.756023	69.792929	275.955530	-398.521000	159.709585	566.017105	-395.345377	117.200069	491.723868	-378.608454	41.934793	443.713864	-382.720613	134.270571	479.324064	-345.709554	153.158910	260.108206	-337.445642	-203.623837	868.345421	-206.285817	-49.453741	83.985195	-413.664597	-48.703250	79.639966	-16.189365	
3	0.0150	420.355116	1365.105805	-42.411142	437.997863	1373.454566	-373.762101	412.481844	1449.996625	-205.876187	452.910359	1298.285486	-204.313551	499.265226	1115.811515	28.372166	690.960292	948.816325	-31.295883	489.356675	1114.158906	-453.327985	677.694963	945.818262	-415.880007	-52.085737	1141.102823	-220.062882	134.547198	1092.643802	-376.636982	100.148739	1105.016593	-40.454654	143.932895	1022.362328	-351.088982	111.995465	1048.246644	-68.403434	-18.846785	1175.319552	-185.349288	-13.586703	1173.564691	-247.939994	55.543008	1054.959712	-8.587091	81.572311	1017.678097	-407.455720	157.869358	986.435777	-2.950571	246.803426	967.150916	-9.576210	310.368760	908.476922	-16.716615	258.818030	997.815490	-28.581412	380.967031	828.474125	-40.378211	380.108840	803.884140	-151.052602	347.525898	709.527543	-14.492680	342.860953	624.045947	-35.939700	298.939010	549.155425	-39.940416	365.963368	621.961044	-68.368754	269.023007	469.780697	-46.069599	206.155015	446.378681	-97.905562	477.639530	397.065159	-97.870960	379.294263	386.170784	-27.999091	118.646986	899.318576	-417.452973	182.754212	841.620014	-406.005610	212.189806	861.126841	-392.403651	209.390217	756.454999	-396.144858	228.087763	646.915819	-367.515431	219.105754	630.843205	-251.354775	-26.951949	374.646158	-376.721548	-108.000733	364.748977	-331.760464	69.814075	275.923034	-398.515422	159.702984	565.964800	-395.344217	117.212749	491.664491	-378.613485	41.945042	443.672987	-382.710764	134.277195	479.320288	-345.733024	153.169651	260.071853	-337.452623	-203.623953	868.338260	-206.285207	-49.456524	83.983535	-413.664956	-48.710027	79.652457	-16.187628	
4	0.0200	420.365425	1365.096721	-42.461708	437.925851	1373.371220	-374.164424	412.482351	1450.005642	-205.922224	452.890128	1298.283068	-204.327919	499.406984	1115.824102	28.546445	690.957416	948.805388	-31.313553	489.372448	1114.141288	-453.334438	677.762152	945.752209	-415.874103	-52.443760	1141.443696	-219.477244	134.855598	1091.708552	-375.270279	100.043109	1104.854519	-40.447227	144.058062	1022.225366	-351.102682	111.876585	1048.104225	-68.441501	-18.255890	1176.329576	-186.822893	-13.560849	1173.860325	-247.821354	55.836605	1054.912444	-8.585668	81.461272	1017.725366	-407.320666	158.121763	986.095654	-3.446867	246.773239	967.168387	-9.574310	310.432291	908.367547	-16.684200	258.790642	997.931983	-28.619432	381.581285	828.428077	-40.102520	380.249787	803.881461	-151.021053	347.535153	709.555371	-14.493284	342.645965	623.872293	-36.216285	298.903815	549.195120	-39.930430	366.269043	622.004780	-68.290831	268.620006	470.290144	-45.664628	206.127546	446.403367	-97.909061	477.622320	397.117763	-97.879853	379.283114	386.227981	-27.991571	118.627662	899.300514	-417.475233	182.724788	841.603214	-406.020580	211.932472	861.276784	-392.210974	209.359560	756.429020	-396.153170	228.061111	646.888620	-367.527139	219.091855	630.832021	-251.358796	-26.940580	374.418876	-376.460039	-107.977659	364.691999	-331.766760	69.809334	275.878279	-398.519055	159.851268	565.838983	-395.428081	117.067566	491.473356	-378.620033	41.727528	444.034356	-383.281969	133.620321	478.626354	-344.889738	153.188346	260.024464	-337.448579	-203.716264	868.313189	-206.529307	-49.452976	83.988437	-413.646142	-48.727306	79.643271	-16.201649	
5	0.0250	420.310604	1365.513786	-42.424971	437.921459	1373.540619	-374.248661	412.492333	1450.083181	-205.948623	452.669968	1298.589219	-204.175681	499.621784	1116.223933	28.822769	690.994234	948.986278	-31.184588	489.201516	1114.166452	-453.531499	677.737342	945.717579	-415.909768	-52.702714	1141.102530	-219.520614	134.815821	1091.763794	-375.284400	99.955408	1105.187629	-40.576486	143.925661	1022.471332	-351.066675	111.798041	1048.391301	-68.473357	-18.150597	1176.280531	-186.839957	-13.634924	1173.864818	-247.749828	55.721271	1055.235757	-8.584441	81.301001	1017.943971	-407.295917	157.979851	986.455968	-3.400253	246.603933	967.265008	-9.631235	310.469812	908.648426	-16.330401	258.814656	998.084294	-28.528241	381.481635	828.918586	-39.885551	380.303847	803.947044	-151.067464	347.340499	709.715976	-14.145830	342.545582	624.170370	-36.027143	298.708984	549.359623	-39.868525	366.172127	622.246042	-68.179364	268.657416	470.283369	-46.082767	206.103565	446.425709	-97.887336	477.593945	397.393732	-97.748775	379.166060	386.616148	-27.942907	118.491875	899.433610	-417.344992	182.680660	841.603153	-406.069135	211.858160	861.305464	-392.263766	209.182068	756.599650	-396.137342	227.918294	647.036584	-367.584831	218.897393	631.342371	-250.396112	-27.029493	374.400462	-376.540293	-107.968784	364.580544	-331.788603	69.741307	275.882180	-398.578624	159.633422	566.016917	-395.454348	116.824527	491.738684	-378.518238	41.675981	444.114311	-383.894376	133.783164	478.729499	-345.057064	153.225451	259.827709	-336.790378	-203.676438	868.309572	-206.485194	-49.729934	83.723930	-413.920513	-48.938129	80.145099	-15.745632	
6	0.0300	420.774180	1365.679179	-42.447258	437.888610	1373.543934	-374.263406	412.454983	1450.071038	-205.977783	452.637626	1298.628066	-204.191712	499.655776	1116.283296	28.836230	691.004318	948.988581	-31.199839	489.328144	1114.353015	-453.428143	677.761084	945.717250	-415.962631	-52.594783	1141.586792	-219.307925	134.781504	1091.794227	-375.269702	99.936783	1105.252998	-40.612720	143.875444	1022.537802	-351.016799	111.785776	1048.451087	-68.495520	-18.157094	1176.279005	-186.860040	-13.662080	1173.866756	-247.752215	55.642188	1055.188416	-8.513759	81.421490	1017.805706	-407.112697	157.927898	986.513357	-3.382449	246.643679	967.452867	-9.529846	310.452849	908.738261	-16.294763	258.798482	998.037010	-28.912210	381.459335	828.988145	-39.853111	380.306209	803.990025	-151.087603	347.379999	709.821047	-14.425496	342.476202	624.219657	-36.018507	298.694902	549.460613	-39.833503	366.096966	622.282280	-68.163025	268.669462	470.353688	-45.728290	206.061591	446.451937	-97.872212	477.563176	397.477352	-97.741898	379.090461	386.647578	-27.839777	118.463655	899.429741	-417.349619	182.663599	841.584010	-406.067998	211.825919	861.298586	-392.280542	209.126420	756.610251	-396.149812	227.900410	647.043149	-367.631820	218.759500	631.088112	-251.223173	-27.039471	374.357565	-376.559979	-107.942678	364.540569	-331.797546	69.729112	275.864565	-398.578658	159.620397	566.001673	-395.480994	116.832044	491.758053	-378.552434	41.925153	443.897335	-383.166953	133.803539	478.753771	-345.132916	153.031024	259.969835	-337.555620	-203.654048	868.300861	-206.444334	-49.483653	83.946992	-413.801074	-48.926621	80.026563	-16.220000	
